<svg width="24" height="24" viewBox="0 0 24 24" fill="none" xmlns="http://www.w3.org/2000/svg">
<path d="M14.2601 19.1699L15.9901 17.6299C16.9601 16.7699 17.0001 16.1699 16.2301 15.1999L13.1801 11.3299C12.5401 10.5199 11.4901 10.5199 10.8501 11.3299L7.80005 15.1999C7.03005 16.1699 7.03005 16.7999 8.04005 17.6299L9.77006 19.1699M12.0101 11.1199V13.6499M10.7501 22.4999H13.2701C14.2301 22.4999 14.8501 21.8199 14.6701 20.9899L14.2601 19.1799H9.76005L9.35005 20.9899C9.17005 21.7699 9.85005 22.4999 10.7501 22.4999Z" stroke="black" stroke-linecap="round" stroke-linejoin="round"/>
<path d="M10.52 3.56C6.71002 4.01 3.75002 7.24 3.75002 11.17M20.25 11.17C20.25 7.25 17.31 4.03 13.52 3.56M12.52 5H11.52C10.97 5 10.52 4.55 10.52 4V3C10.52 2.45 10.97 2 11.52 2H12.52C13.07 2 13.52 2.45 13.52 3V4C13.52 4.55 13.07 5 12.52 5ZM3.27002 14.17H4.27002C4.82002 14.17 5.27002 13.72 5.27002 13.17V12.17C5.27002 11.62 4.82002 11.17 4.27002 11.17H3.27002C2.72002 11.17 2.27002 11.62 2.27002 12.17V13.17C2.27002 13.72 2.72002 14.17 3.27002 14.17ZM20.73 14.17H19.73C19.18 14.17 18.73 13.72 18.73 13.17V12.17C18.73 11.62 19.18 11.17 19.73 11.17H20.73C21.28 11.17 21.73 11.62 21.73 12.17V13.17C21.73 13.72 21.28 14.17 20.73 14.17Z" stroke="black" stroke-linecap="round" stroke-linejoin="round"/>
</svg>
